<?xml version="1.0" encoding="UTF-8" standalone="no"?>
<!DOCTYPE svg PUBLIC "-//W3C//DTD SVG 1.1//EN" "http://www.w3.org/Graphics/SVG/1.1/DTD/svg11.dtd">
<svg width="100%" height="100%" viewBox="0 0 3543 3543" version="1.1" xmlns="http://www.w3.org/2000/svg" xmlns:xlink="http://www.w3.org/1999/xlink" xml:space="preserve" xmlns:serif="http://www.serif.com/" style="fill-rule:evenodd;clip-rule:evenodd;stroke-linejoin:round;stroke-miterlimit:2;">
    <g>
        <path d="M3543.31,768.593C3543.31,517.323 3339.31,313.324 3088.04,313.324L455.269,313.324C203.999,313.324 0,517.323 0,768.593C0,768.593 0,2774.71 0,2774.71C0,3025.98 203.999,3229.98 455.269,3229.98L3088.04,3229.98C3339.31,3229.98 3543.31,3025.98 3543.31,2774.71C3543.31,2774.71 3543.31,768.593 3543.31,768.593ZM3446.56,2252.63L3446.56,768.593C3446.56,570.718 3285.91,410.068 3088.04,410.068C3088.04,410.068 455.269,410.068 455.269,410.068C257.394,410.068 96.745,570.718 96.745,768.593L96.745,2061.49L988.344,1051.01L1326.63,1423.12C1281.74,1438.3 1227.39,1454.93 1158.26,1480.89C995.738,1541.9 944.356,1613.28 911.834,1718.7C884.979,1805.76 875.814,1922.93 811.322,2093.5C763.918,2218.87 765.18,2304.83 790.606,2364.87C817.014,2427.22 869.858,2467.73 941.71,2493.83C1023.86,2523.67 1134.43,2534.25 1242.45,2557.97C1365.72,2585.04 1455.23,2643.2 1532.76,2665.96C1587.03,2681.89 1637.04,2683.6 1686.56,2663.56C1731.54,2645.36 1777.95,2607.64 1825.43,2535.92C1874.9,2461.2 1979.98,2369.94 2102.8,2276.91L2241.64,2429.63L2739.91,1850.53C2754.47,1841.35 2767.47,1833.12 2778.66,1825.94C2832.6,1791.35 2866.82,1742.41 2884.38,1682.61L2898.06,1666.72L3446.56,2252.63ZM1680.71,2559.9C1666.7,2570.37 1652.86,2577.22 1638.81,2580.95L1610.62,2588.45L1625.61,2644.82L1653.8,2637.33C1674.48,2631.83 1695.02,2622.04 1715.64,2606.61L1739,2589.14L1704.06,2542.43L1680.71,2559.9ZM1541.62,2570.42C1524.94,2564.58 1507.63,2557.37 1489.49,2549.48L1462.75,2537.84L1439.48,2591.33L1466.22,2602.97C1485.74,2611.46 1504.38,2619.18 1522.33,2625.47L1549.86,2635.12L1569.15,2580.07L1541.62,2570.42ZM1381.21,2503.1C1363.08,2496.04 1344.17,2489.24 1324.38,2483.03L1296.55,2474.29L1279.07,2529.94L1306.9,2538.68C1325.41,2544.49 1343.09,2550.86 1360.05,2557.46L1387.23,2568.04L1408.39,2513.68L1381.21,2503.1ZM1788.46,2430.83C1773.91,2447.61 1761.19,2463.86 1750.55,2479.44L1734.09,2503.52L1782.25,2536.43L1798.71,2512.35C1808.2,2498.46 1819.56,2484 1832.53,2469.04L1851.64,2447.01L1807.57,2408.79L1788.46,2430.83ZM1262.54,2466.49C1243.17,2462.24 1223.71,2458.43 1204.35,2454.87L1175.67,2449.6L1165.12,2506.97L1193.81,2512.24C1212.52,2515.68 1231.32,2519.35 1250.03,2523.46L1278.52,2529.72L1291.03,2472.74L1262.54,2466.49ZM1089.5,2434.66C1070.28,2431.1 1051.6,2427.35 1033.72,2423.15L1005.32,2416.49L992.002,2473.28L1020.4,2479.94C1039.14,2484.34 1058.71,2488.28 1078.86,2492.02L1107.54,2497.34L1118.18,2439.99L1089.5,2434.66ZM932.182,2386.94C917.545,2378.53 904.788,2368.71 894.532,2356.8L875.504,2334.69L831.294,2372.75L850.322,2394.85C864.755,2411.62 882.513,2425.67 903.11,2437.51L928.396,2452.05L957.469,2401.48L932.182,2386.94ZM1917.04,2306.1C1901.59,2319.37 1886.77,2332.5 1872.67,2345.44L1851.18,2365.17L1890.64,2408.14L1912.12,2388.41C1925.76,2375.89 1940.1,2363.19 1955.04,2350.36L1977.17,2331.36L1939.17,2287.1L1917.04,2306.1ZM866.485,2267.79C866.715,2251.85 868.706,2234.39 872.54,2215.21L878.257,2186.61L821.055,2175.17L815.338,2203.77C810.733,2226.81 808.434,2247.8 808.158,2266.94L807.737,2296.11L866.064,2296.95L866.485,2267.79ZM2055.08,2195.63C2039.24,2207.6 2023.66,2219.55 2008.43,2231.46L1985.45,2249.43L2021.38,2295.38L2044.36,2277.42C2059.34,2265.7 2074.66,2253.95 2090.23,2242.18L2113.51,2224.61L2078.35,2178.06L2055.08,2195.63ZM2197.62,2092.3C2181.57,2103.52 2165.6,2114.82 2149.74,2126.16L2126.02,2143.12L2159.95,2190.57L2183.67,2173.61C2199.36,2162.38 2215.18,2151.21 2231.05,2140.1L2254.95,2123.38L2221.52,2075.58L2197.62,2092.3ZM905.788,2108.14C912.858,2088.7 919.236,2069.96 925.03,2051.88L933.93,2024.1L878.378,2006.3L869.478,2034.08C863.905,2051.47 857.769,2069.5 850.968,2088.2L840.998,2115.61L895.817,2135.55L905.788,2108.14ZM2342.87,1993.45C2326.76,2004.15 2310.52,2015.01 2294.22,2026L2270.04,2042.31L2302.65,2090.67L2326.83,2074.37C2343.01,2063.45 2359.14,2052.67 2375.14,2042.04L2399.44,2025.91L2367.17,1977.31L2342.87,1993.45ZM2489.92,1897.67C2473.88,1907.94 2457.46,1918.5 2440.74,1929.32L2416.26,1945.16L2447.95,1994.14L2472.44,1978.29C2489.07,1967.53 2505.41,1957.02 2521.37,1946.8L2545.93,1931.07L2514.48,1881.94L2489.92,1897.67ZM956.972,1937.49C961.849,1917.31 966.133,1898.15 970.079,1879.93L976.253,1851.43L919.241,1839.08L913.067,1867.59C909.215,1885.38 905.033,1904.08 900.271,1923.79L893.42,1952.13L950.121,1965.84L956.972,1937.49ZM2638.01,1803.95C2622.5,1813.69 2605.98,1824.08 2588.59,1835.04L2563.91,1850.59L2595.02,1899.94L2619.69,1884.38C2637.05,1873.44 2653.55,1863.08 2669.03,1853.35L2693.73,1837.84L2662.71,1788.44L2638.01,1803.95ZM2769.59,1708.14C2760.26,1721.07 2748.81,1732.54 2735.03,1742.4L2711.31,1759.37L2745.25,1806.81L2768.97,1789.84C2788.08,1776.17 2803.93,1760.22 2816.88,1742.3L2833.95,1718.65L2786.67,1684.5L2769.59,1708.14ZM995.304,1767.43C1000.24,1748.86 1005.64,1731.66 1012.23,1715.62L1023.31,1688.64L969.359,1666.47L958.273,1693.45C950.767,1711.72 944.551,1731.29 938.928,1752.44L931.436,1780.63L987.812,1795.62L995.304,1767.43ZM1071.42,1633.09C1083.85,1622.63 1098.26,1612.75 1115.07,1603.23L1140.45,1588.86L1111.71,1538.1L1086.33,1552.47C1066.11,1563.92 1048.82,1575.88 1033.86,1588.46L1011.55,1607.24L1049.11,1651.87L1071.42,1633.09ZM2804.87,1559.28C2805.5,1578.06 2804.95,1596.1 2803,1613.27L2799.72,1642.25L2857.68,1648.81L2860.97,1619.83C2863.22,1599.96 2863.9,1579.07 2863.17,1557.33L2862.2,1528.18L2803.9,1530.12L2804.87,1559.28ZM1217.5,1558.88C1236.87,1551.88 1254.98,1545.61 1271.98,1539.88L1299.62,1530.55L1280.97,1475.28L1253.33,1484.6C1235.96,1490.46 1217.45,1496.87 1197.66,1504.02L1170.23,1513.94L1190.07,1568.8L1217.5,1558.88ZM1383.15,1502.63C1403.9,1495.17 1422.61,1487.67 1439.93,1479.27L1466.18,1466.54L1440.73,1414.06L1414.48,1426.78C1398.91,1434.33 1382.06,1441.03 1363.41,1447.74L1335.96,1457.62L1355.71,1512.51L1383.15,1502.63ZM2777.41,1393.4C2782.33,1412.11 2786.73,1430.56 2790.49,1448.67L2796.42,1477.23L2853.54,1465.37L2847.6,1436.81C2843.64,1417.72 2839.01,1398.28 2833.83,1378.57L2826.41,1350.36L2770,1365.19L2777.41,1393.4ZM1541.19,1401.64C1553.52,1387.35 1565.77,1370.94 1578.31,1351.79L1594.28,1327.39L1545.48,1295.44L1529.5,1319.84C1518.52,1336.62 1507.83,1351.02 1497.03,1363.53L1477.97,1385.61L1522.14,1423.72L1541.19,1401.64ZM2725.02,1229.27C2731.61,1247.45 2738.01,1265.61 2744.12,1283.7L2753.45,1311.33L2808.72,1292.66L2799.38,1265.03C2793.13,1246.53 2786.6,1227.96 2779.85,1209.37L2769.9,1181.95L2715.07,1201.86L2725.02,1229.27ZM1636.99,1247.12C1644.26,1232.56 1651.77,1217.04 1659.58,1200.45C1660.59,1198.3 1661.61,1196.15 1662.61,1194.02L1675.08,1167.65L1622.34,1142.72L1609.88,1169.09C1608.86,1171.25 1607.83,1173.42 1606.81,1175.59C1599.2,1191.75 1591.88,1206.88 1584.8,1221.06L1571.77,1247.16L1623.96,1273.21L1636.99,1247.12ZM2251.58,766.326C2320.04,672.986 2430.48,612.355 2554.96,612.355C2762.48,612.355 2930.95,780.83 2930.95,988.344C2930.95,1087.56 2892.44,1177.85 2829.58,1245.06C2804.67,1171.95 2775.67,1097.93 2747.18,1026.98C2699.54,908.311 2654.38,849.115 2602.9,816.501C2565.59,792.868 2523.88,781.903 2471.8,777.274C2416.47,772.355 2346.53,774.829 2251.58,766.326ZM2662.3,1066.95C2669.46,1084.79 2676.66,1102.83 2683.81,1120.98L2694.51,1148.12L2748.78,1126.72L2738.08,1099.59C2730.88,1081.32 2723.64,1063.18 2716.44,1045.23L2705.58,1018.16L2651.44,1039.88L2662.3,1066.95ZM1713.81,1090.65C1723.08,1073.13 1732.27,1056.54 1741.52,1040.87L1756.33,1015.74L1706.08,986.113L1691.27,1011.24C1681.59,1027.65 1671.95,1045.03 1662.25,1063.39L1648.61,1089.17L1700.18,1116.44L1713.81,1090.65ZM2584.06,922.671C2594.47,934.345 2604.5,948.467 2614.55,965.492L2629.38,990.608L2679.62,960.949L2664.79,935.834C2652.56,915.134 2640.26,898.042 2627.6,883.849L2608.19,862.079L2564.65,900.901L2584.06,922.671ZM1805.33,949.853C1817.51,935.859 1830.16,923.259 1843.5,912.06L1865.85,893.314L1828.36,848.625L1806.01,867.372C1790.4,880.469 1775.59,895.178 1761.34,911.545L1742.18,933.541L1786.17,971.849L1805.33,949.853ZM2446.47,869.303C2466.17,870.516 2483.98,872.335 2500.35,875.649L2528.94,881.438L2540.51,824.265L2511.93,818.476C2493.13,814.67 2472.68,812.474 2450.05,811.08L2420.94,809.287L2417.35,867.51L2446.47,869.303ZM1935.15,861.305C1951.44,856.036 1968.78,851.999 1987.35,849.144L2016.18,844.713L2007.32,787.057L1978.49,791.488C1956.68,794.84 1936.32,799.616 1917.19,805.802L1889.44,814.778L1907.39,870.28L1935.15,861.305ZM2271.35,861.832C2292.28,863.33 2311.95,864.351 2330.47,865.114L2359.61,866.316L2362.01,808.032L2332.87,806.83C2314.9,806.09 2295.82,805.1 2275.51,803.648L2246.42,801.567L2242.26,859.751L2271.35,861.832ZM2097.81,844.858C2115.7,845.771 2134.46,847.337 2154.17,849.543L2183.16,852.787L2189.65,794.816L2160.66,791.572C2139.72,789.228 2119.79,787.57 2100.78,786.6L2071.65,785.114L2068.68,843.372L2097.81,844.858Z"/>
    </g>
</svg>
