<?xml version="1.0" encoding="UTF-8" standalone="no"?>
<!DOCTYPE svg PUBLIC "-//W3C//DTD SVG 1.1//EN" "http://www.w3.org/Graphics/SVG/1.1/DTD/svg11.dtd">
<svg width="100%" height="100%" viewBox="0 0 3543 3543" version="1.1" xmlns="http://www.w3.org/2000/svg" xmlns:xlink="http://www.w3.org/1999/xlink" xml:space="preserve" xmlns:serif="http://www.serif.com/" style="fill-rule:evenodd;clip-rule:evenodd;stroke-linejoin:round;stroke-miterlimit:2;">
    <path d="M3543.31,770.787C3543.31,515.578 3336.11,308.38 3080.9,308.38L462.407,308.38C207.197,308.38 0,515.578 0,770.787L0,2766.03C0,3021.24 207.197,3228.44 462.407,3228.44L3080.9,3228.44C3336.11,3228.44 3543.31,3021.24 3543.31,2766.03C3543.31,2766.03 3543.31,770.787 3543.31,770.787ZM3427.88,770.787L3427.88,2766.03C3427.88,2957.53 3272.4,3113.01 3080.9,3113.01C3080.9,3113.01 462.407,3113.01 462.407,3113.01C270.906,3113.01 115.431,2957.53 115.431,2766.03L115.431,770.787C115.431,579.286 270.906,423.812 462.407,423.812L3080.9,423.812C3272.4,423.812 3427.88,579.286 3427.88,770.787ZM1214.23,1130.69L1321.47,1130.69C1324.01,1130.69 1326.54,1130.53 1329.05,1130.2C1329.05,1130.2 1367.3,1125.33 1397.94,1149.8C1421.63,1168.72 1437.33,1204.3 1437.33,1265.48L1437.33,2078.74L1220.99,2078.74C1146.83,2078.74 1086.61,2138.95 1086.61,2213.12L1086.61,2762.46C1086.61,2836.63 1146.83,2896.84 1220.99,2896.84L1770.34,2896.84C1844.5,2896.84 1904.71,2836.63 1904.71,2762.46L1904.71,2213.12C1904.71,2138.95 1844.5,2078.74 1770.34,2078.74L1554,2078.74L1554,1604.84C1625.84,1658.19 1703.39,1658.1 1703.39,1658.1C1703.54,1658.1 1703.69,1658.11 1703.84,1658.11L2362.2,1658.11L2362.2,1874.44C2362.2,1948.61 2422.42,2008.82 2496.58,2008.82L3045.93,2008.82C3120.09,2008.82 3180.3,1948.61 3180.3,1874.44L3180.3,1325.1C3180.3,1250.93 3120.09,1190.72 3045.93,1190.72L2496.58,1190.72C2422.42,1190.72 2362.2,1250.93 2362.2,1325.1L2362.2,1558.97L2362.2,1541.44L1704.23,1541.44C1702.2,1541.37 1650.96,1539.37 1609.51,1499.26C1577.72,1468.49 1554,1416.47 1554,1331.69L1554,1265.48C1554,1153.86 1513.98,1093.17 1470.76,1058.64C1411.24,1011.1 1338.98,1012.58 1319.15,1014.03L1214.23,1014.03L1214.23,796.992C1214.23,722.828 1154.02,662.617 1079.85,662.617L530.507,662.617C456.343,662.617 396.131,722.828 396.131,796.992L396.131,1346.34C396.131,1420.5 456.343,1480.71 530.507,1480.71L1079.85,1480.71C1154.02,1480.71 1214.23,1420.5 1214.23,1346.34L1214.23,1130.69Z"/>
</svg>
