<?xml version="1.0" encoding="UTF-8" standalone="no"?>
<!DOCTYPE svg PUBLIC "-//W3C//DTD SVG 1.1//EN" "http://www.w3.org/Graphics/SVG/1.1/DTD/svg11.dtd">
<svg width="100%" height="100%" viewBox="0 0 3543 3543" version="1.1" xmlns="http://www.w3.org/2000/svg" xmlns:xlink="http://www.w3.org/1999/xlink" xml:space="preserve" xmlns:serif="http://www.serif.com/" style="fill-rule:evenodd;clip-rule:evenodd;stroke-linejoin:round;stroke-miterlimit:2;">
    <path d="M3543.31,766.352C3543.31,516.705 3340.63,314.024 3090.98,314.024L452.328,314.024C202.681,314.024 0,516.705 0,766.352L0,2776.95C0,3026.6 202.681,3229.28 452.328,3229.28C452.328,3229.28 3090.98,3229.28 3090.98,3229.28C3340.63,3229.28 3543.31,3026.6 3543.31,2776.95C3543.31,2776.95 3543.31,766.352 3543.31,766.352ZM3454.26,766.352L3454.26,2776.95C3454.26,2977.46 3291.48,3140.24 3090.98,3140.24L452.328,3140.24C251.825,3140.24 89.043,2977.46 89.043,2776.95C89.043,2776.95 89.043,766.352 89.043,766.352C89.043,565.849 251.825,403.067 452.328,403.067C452.328,403.067 3090.98,403.067 3090.98,403.067C3291.48,403.067 3454.26,565.849 3454.26,766.352ZM1294.01,2603.04L1394.01,2603.04L1394.01,2553.04L1294.01,2553.04L1294.01,2603.04ZM2494.01,2603.04L2524.53,2603.04C2541.26,2603.04 2557.62,2601.44 2573.47,2598.39L2598.02,2593.66L2588.56,2544.56L2564.01,2549.29C2551.23,2551.75 2538.03,2553.04 2524.53,2553.04L2494.01,2553.04L2494.01,2603.04ZM2344.01,2603.04L2444.01,2603.04L2444.01,2553.04L2344.01,2553.04L2344.01,2603.04ZM994.01,2603.04L1094.01,2603.04L1094.01,2553.04L994.01,2553.04L994.01,2603.04ZM1144.01,2603.04L1244.01,2603.04L1244.01,2553.04L1144.01,2553.04L1144.01,2603.04ZM2194.01,2603.04L2294.01,2603.04L2294.01,2553.04L2194.01,2553.04L2194.01,2603.04ZM2044.01,2603.04L2144.01,2603.04L2144.01,2553.04L2044.01,2553.04L2044.01,2603.04ZM1894.01,2603.04L1994.01,2603.04L1994.01,2553.04L1894.01,2553.04L1894.01,2603.04ZM1744.01,2603.04L1844.01,2603.04L1844.01,2553.04L1744.01,2553.04L1744.01,2603.04ZM1444.01,2603.04L1544.01,2603.04L1544.01,2553.04L1444.01,2553.04L1444.01,2603.04ZM1594.01,2603.04L1694.01,2603.04L1694.01,2553.04L1594.01,2553.04L1594.01,2603.04ZM864.145,2551.46C878.835,2562.5 894.741,2572 911.624,2579.74L934.352,2590.15L955.18,2544.7L932.452,2534.28C918.844,2528.05 906.024,2520.39 894.185,2511.49L874.199,2496.47L844.16,2536.44L864.145,2551.46ZM2674.44,2554.92C2689.46,2544.16 2703.28,2531.82 2715.65,2518.14L2732.42,2499.61L2695.35,2466.06L2678.58,2484.6C2668.59,2495.63 2657.44,2505.59 2645.32,2514.28L2625,2528.84L2654.12,2569.48L2674.44,2554.92ZM865.632,1911.31L1339.59,1374.15L2030.89,2134.59L2392.97,1713.77L2677.68,2017.9L2677.68,2324.93C2677.68,2424.23 2597.06,2504.85 2497.76,2504.85C2497.76,2504.85 1045.55,2504.85 1045.55,2504.85C946.251,2504.85 865.632,2424.23 865.632,2324.93L865.632,1911.31ZM771.251,2417.22C776.455,2435.14 783.552,2452.26 792.313,2468.35L804.27,2490.3L848.18,2466.39L836.223,2444.43C829.171,2431.49 823.457,2417.7 819.268,2403.28L812.297,2379.27L764.28,2393.21L771.251,2417.22ZM2770.36,2422.83C2775.83,2405.47 2779.52,2387.33 2781.2,2368.61L2783.43,2343.71L2733.64,2339.24L2731.4,2364.14C2730.05,2379.21 2727.08,2393.82 2722.67,2407.79L2715.15,2431.63L2762.84,2446.67L2770.36,2422.83ZM761.068,2236.12L761.068,2336.12L811.068,2336.12L811.068,2236.12L761.068,2236.12ZM2782.24,2291.41L2782.24,2191.41L2732.24,2191.41L2732.24,2291.41L2782.24,2291.41ZM761.068,2086.12L761.068,2186.12L811.068,2186.12L811.068,2086.12L761.068,2086.12ZM2782.24,2141.41L2782.24,2041.4L2732.24,2041.4L2732.24,2141.41L2782.24,2141.41ZM761.068,1936.12L761.068,2036.12L811.068,2036.12L811.068,1936.12L761.068,1936.12ZM2782.24,1991.4L2782.24,1891.4L2732.24,1891.4L2732.24,1991.4L2782.24,1991.4ZM761.068,1786.12L761.068,1886.12L811.068,1886.12L811.068,1786.12L761.068,1786.12ZM2782.24,1841.4L2782.24,1741.41L2732.24,1741.41L2732.24,1841.4L2782.24,1841.4ZM761.068,1636.12L761.068,1736.12L811.068,1736.12L811.068,1636.12L761.068,1636.12ZM2782.24,1691.41L2782.24,1591.41L2732.24,1591.41L2732.24,1691.41L2782.24,1691.41ZM761.068,1486.12L761.068,1586.12L811.068,1586.12L811.068,1486.12L761.068,1486.12ZM2203.72,1132.2C2318.18,1132.2 2411.11,1225.13 2411.11,1339.59C2411.11,1454.05 2318.18,1546.98 2203.72,1546.98C2089.26,1546.98 1996.33,1454.05 1996.33,1339.59C1996.33,1225.13 2089.26,1132.2 2203.72,1132.2ZM2782.24,1541.41L2782.24,1441.41L2732.24,1441.41L2732.24,1541.41L2782.24,1541.41ZM761.068,1336.12L761.068,1436.12L811.068,1436.12L811.068,1336.12L761.068,1336.12ZM2782.24,1391.41L2782.24,1291.41L2732.24,1291.41L2732.24,1391.41L2782.24,1391.41ZM761.068,1186.12L761.068,1286.12L811.068,1286.12L811.068,1186.12L761.068,1186.12ZM2732.24,1197.98L2732.24,1241.41L2782.24,1241.41L2782.24,1172.98L2781.03,1172.98C2780.06,1162.82 2778.49,1152.83 2776.36,1143.04L2771.04,1118.62L2722.18,1129.24L2727.5,1153.67C2730.61,1167.95 2732.24,1182.78 2732.24,1197.98ZM804.386,1055C794.186,1070.26 785.572,1086.67 778.777,1103.99L769.647,1127.26L816.194,1145.52L825.324,1122.25C830.797,1108.3 837.738,1095.08 845.955,1082.79L859.848,1062L818.279,1034.21L804.386,1055ZM2730.5,1043.14C2719.39,1028.39 2706.73,1014.86 2692.77,1002.81L2673.84,986.48L2641.17,1024.34L2660.1,1040.67C2671.37,1050.39 2681.59,1061.31 2690.56,1073.22L2705.6,1093.19L2745.54,1063.11L2730.5,1043.14ZM933.266,954.821C915.698,961.006 898.998,969.041 883.402,978.694L862.144,991.851L888.457,1034.37L909.715,1021.21C922.275,1013.44 935.723,1006.96 949.871,1001.98L973.452,993.681L956.848,946.518L933.266,954.821ZM2596.18,950.378C2578.71,945.327 2560.49,942.072 2541.72,940.832L2516.78,939.183L2513.48,989.074L2538.43,990.723C2553.54,991.722 2568.22,994.341 2582.28,998.409L2606.3,1005.36L2620.19,957.325L2596.18,950.378ZM2165.09,940.265L2065.09,940.265L2065.09,990.265L2165.09,990.265L2165.09,940.265ZM2015.09,940.265L1915.09,940.265L1915.09,990.265L2015.09,990.265L2015.09,940.265ZM1115.08,940.265L1015.08,940.265L1015.08,990.265L1115.08,990.265L1115.08,940.265ZM1865.08,940.265L1765.08,940.265L1765.08,990.265L1865.08,990.265L1865.08,940.265ZM1265.08,940.265L1165.08,940.265L1165.08,990.265L1265.08,990.265L1265.08,940.265ZM1415.08,940.265L1315.08,940.265L1315.08,990.265L1415.08,990.265L1415.08,940.265ZM1565.08,940.265L1465.08,940.265L1465.08,990.265L1565.08,990.265L1565.08,940.265ZM1715.08,940.265L1615.08,940.265L1615.08,990.265L1715.08,990.265L1715.08,940.265ZM2465.09,940.265L2365.09,940.265L2365.09,990.265L2465.09,990.265L2465.09,940.265ZM2315.09,940.265L2215.09,940.265L2215.09,990.265L2315.09,990.265L2315.09,940.265Z"/>
</svg>
